/* XPM */
static char *result[] = {
/* columns rows colors chars-per-pixel */
"64 64 143 2 ",
"   c black",
".  c #040404",
"X  c gray2",
"o  c #070707",
"O  c #030708",
"+  c #05090A",
"@  c #060A0B",
"#  c #070B0C",
"$  c gray3",
"%  c #090909",
"&  c gray4",
"*  c #080C0D",
"=  c #0A0E0F",
"-  c #0C0C0C",
";  c gray5",
":  c #0E0E0E",
">  c gray6",
",  c #0B0F10",
"<  c #0C1011",
"1  c #0D1112",
"2  c #0F1314",
"3  c #111111",
"4  c gray7",
"5  c #131313",
"6  c #101415",
"7  c #111516",
"8  c #121617",
"9  c #141819",
"0  c #15191A",
"q  c #161A1B",
"w  c #171B1C",
"e  c #191D1E",
"r  c #1A1E1F",
"t  c #1B1F20",
"y  c #540A0A",
"u  c #550A0A",
"i  c #560A0A",
"p  c #570A0A",
"a  c #570B0B",
"s  c #580A0A",
"d  c #580B0B",
"f  c #590B0B",
"g  c #5A0B0B",
"h  c #5B0B0B",
"j  c #5C0B0B",
"k  c #5D0B0B",
"l  c #5E0B0B",
"z  c #5F0B0B",
"x  c #5E0C0C",
"c  c #5F0C0C",
"v  c #600B0B",
"b  c #610B0B",
"n  c #610C0C",
"m  c #620C0C",
"M  c #630C0C",
"N  c #640C0C",
"B  c #650C0C",
"V  c #660C0C",
"C  c #670C0C",
"Z  c #660D0D",
"A  c #680C0C",
"S  c #690C0C",
"D  c #680D0D",
"F  c #690D0D",
"G  c #6B0C0C",
"H  c #6A0D0D",
"J  c #6B0D0D",
"K  c #6A0E0E",
"L  c #6C0D0D",
"P  c #6D0D0D",
"I  c #6E0D0D",
"U  c #6F0D0D",
"Y  c #6E0E0E",
"T  c #6F0E0E",
"R  c #700D0D",
"E  c #710D0D",
"W  c #720D0D",
"Q  c #710E0E",
"!  c #720E0E",
"~  c #730E0E",
"^  c #740E0E",
"/  c #750E0E",
"(  c #760E0E",
")  c #770E0E",
"_  c #760F0F",
"`  c #780E0E",
"'  c #790E0E",
"]  c #780F0F",
"[  c #790F0F",
"{  c #7A0F0F",
"}  c #7B0F0F",
"|  c #7C0F0F",
" . c #7D0F0F",
".. c #7E0F0F",
"X. c #7F0F0F",
"o. c #7D1010",
"O. c #7E1010",
"+. c #7F1010",
"@. c #800F0F",
"#. c #810F0F",
"$. c #801010",
"%. c #811010",
"&. c #821010",
"*. c #831010",
"=. c #841010",
"-. c #851010",
";. c #841111",
":. c #851111",
">. c #861010",
",. c #871010",
"<. c #861111",
"1. c #871111",
"2. c #881010",
"3. c #891010",
"4. c #881111",
"5. c #891111",
"6. c #8A1010",
"7. c #8A1111",
"8. c #8B1111",
"9. c #8C1111",
"0. c #8D1111",
"q. c #8E1111",
"w. c #901111",
"e. c #921111",
"r. c #931111",
"t. c #941212",
"y. c #951212",
"u. c #90121C",
"i. c #AAAAAA",
"p. c gray67",
"a. c gray68",
"s. c #AEAEAE",
"d. c #AFAFAF",
"f. c gray69",
"g. c #B2B2B2",
"h. c gray70",
"j. c #B4B4B4",
"k. c gray71",
"l. c #B7B7B7",
"z. c gray72",
"x. c #B9B9B9",
"c. c gray73",
"v. c gray",
/* pixels */
"( ( ( ( ( ( ( ( ( ( ( ( ( ( ( ( ( ( ( ( ( ( ( ( ( ( ( ( ( ( ( ( ( ( ( ( ( ( ( ( ( ( ( ( ( ( ( ( ( ( ( ( ( ( ( ( ( ( ( ( ( ( ( ( ",
"( ( ( ( ( ( ( ( ( ( ( ( ( ( ( ( ( ( ( ( ( ( ( ( ( ( ( ( ( ( ( ( ( ( ( ( ( ( ( ( ( ( ( ( ( ( ( ( ( ( ( ( ( ( ( ( ( ( ( ( ( ( ( ( ",
"( ( ( ( ( ( ( / ^ ^ ^ / / ( ( ( ( ( / / / / ( ( ( ( ( ( ( ( ( ( ( ( ( ( ( ( ( ( ( ( / / / / ( ( ( ( ( ( ( ( ( ( ( ( ( ( ( ( ( ( ",
"( ( ( ( ( ^ ~ E U I I E E ! ~ ! ! ! R R R E ^ ^ / / / ( ( ( ( ( ( ( ( ( ( ( / / ^ ^ E R R R ~ ^ / ( ( ( ( ( ( ( ( ( ( ( ( ( ( ( ",
"( ( ( ( / E R I J H H I U R R R R U P P I I E ! ~ ~ ^ ^ ^ ^ ^ ~ ~ ^ ^ ^ ^ ^ ~ ~ ! E I I I I E ! ~ / ( ( ( ( ( ( ( ( ( ( ( ( ( ( ",
"( ( ^ ! R J S - - - - - A F H S S S - - - - L P I P P P P L L L L L L P P P P I P L - - - - J L I ! ^ ( ( ( ( ( ( ( ( ( ( ( ( ( ",
"( ( ! R P V M - v.v.v.- m N N M M M v.v.v.v.C A S A A A A A C C C C A A A A A S A C v.v.v.v.V C F U E / ( ( ( ( ( ( ( ( ( ( ( ( ",
"/ ^ I H C k g - v.v.v.- f k k h h h v.v.v.v.v v b z l k j h g g g g h j k k z b v v v.v.v.v.z b M J I ! / ( ( ( ( ( ( ( ( ( ( ( ",
"/ ! J A N s i - v.v.v.- y a d i i u v.v.v.v.g h j f s i i i i u y y y y u i a h g g v.v.v.v.g j l C H U Q / ( ( ( ( ( ( ( ( ( ( ",
"E I B v - v.v.v.v.v.v.- h h - v.v.v.- - - - c x - 5 5 5 5 5 5 5 5 5 5 5 5 5 5 - c c - - - - v.v.v.- I / ` | ( ( ( ( ( ( ( ( ( ( ",
"R P M k - v.v.v.v.v.v.- N N - v.v.v.- I I I R P - 5 5 5 5 5 5 5 5 5 5 5 5 5 5 - I I I I I - v.v.v.- _ +.&.1.) / ( ( ( ( ( ( ( ( ",
"U H z f - v.v.v.v.v.v.- M M - v.v.v.- P P P I J - 5 5 5 5 5 5 5 5 5 5 5 5 5 5 - P P P P P - v.v.v.- ~ | $.:.&./ ( ( ( ( ( ( ( ( ",
"I S k p - v.v.v.v.v.v.- M M - v.v.v.- P P - - - - 5 5 5 5 5 5 5 5 5 5 5 5 5 5 - - - - P P - v.v.v.- ! | +.:.*.1. .( ( ( ( ( ( ( ",
"P S j i - v.v.v.v.v.v.- M M - v.v.v.- P P - 5 5 5 t t t t t t t 5 5 5 5 5 5 5 5 5 5 - P P - v.v.v.- ! | +.<.:.>.>.( ( ( ( ( ( ( ",
"L C g i - v.v.v.v.v.v.- M M - v.v.v.- P P - 5 5 5 t t t t t t t 5 5 5 5 5 5 5 5 5 5 - P P - v.v.v.- ~  .$.<.5.4.>.' ( ( ( ( ( ( ",
"L C g i - v.v.v.v.v.v.- M M - v.v.v.- P P - 5 5 5 t t t t t t t 5 5 5 5 5 5 5 5 5 5 - P P - v.v.v.- ^ o.$.1.5.5.4.%.( ( ( ( ( ( ",
"J V f i - v.v.v.v.v.v.- C C - - - - v.v.v.v.5 5 5 t t t t t t t       5 5 5 5 5 5 5 v.v.v.v.- - - - ..>.6.8.5.5.4.=.( ( ( ( ( ( ",
"J V f i - v.v.v.v.v.v.- I I I I P P v.v.v.v.5 5 5 t t t t t t t       5 5 5 5 5 5 5 v.v.v.v.I I / *.2.w.t.0.5.5.5.>.( ( ( ( ( ( ",
"J V f i - v.v.v.v.v.v.- P P P P P P v.v.v.v.5 5 5 t t t t t t t       5 5 5 5 5 5 5 v.v.v.v.P ~ ' >.8.e.y.7.5.5.5.1.( ( ( ( ( ( ",
"J V f i - v.v.v.v.v.v.- P P I P P P v.v.v.v.5 5 5 t t t t t t t       5 5 5 5 5 5 5 v.v.v.v.P ^ { ,.8.e.y.9.5.5.5.5.( ( ( ( ( ( ",
"J V f i - v.v.v.v.v.v.- P P Q Q U P P P P - 5 5 5 u.u.u.u.            u.u.u.u.5 5 5 - P P P Q )  .2.8.w.r.8.4.5.4.&.( ( ( ( ( ( ",
"J V f i - v.v.v.v.v.v.- P P Q Q U P P P P - 5 5 5 u.u.u.u.            u.u.u.u.5 5 5 - P P P U ( | -.3.q.w.7.<.1.<.) ( ( ( ( ( ( ",
"J V f i - v.v.v.v.v.v.- P P P P P P - - - - 5 5 5 u.u.u.u.            u.u.u.u.5 5 5 - - - - P U ^  .#.-.,.=.O.+.$.R E ! / ( ( ( ",
"J V f i - v.v.v.v.v.v.- I I I I I I         5 5 5 5 5 5 5             5 5 5 5 5 5 5         I I I ) } X.#.+.] ] { L P U ~ / ( ( ",
"J V f i - v.v.v.v.v.v.- N N N N N N         5 5 5 5 5 5 5             5 5 5 5 5 5 5         F F F F F H L K H L Y M B C U E / ( ",
"J V f i - v.v.v.v.v.v.- y y y y y y         5 5 5 5 5 5 5             5 5 5 5 5 5 5         M M M M M M M M M N Z k v M L U ~ / ",
"J V f i -             - i i -       5 5 5 5       5 5 5 5             5 5 5 5                                           M C U ! ",
"J V f i -             - i i -       5 5 5 5       5 5 5 5             5 5 5 5                                           v B P E ",
"J V f i -             - i i -       5 5 5 5       5 5 5 5             5 5 5 5                                           h b J U ",
"J V f i -             - - - -       5 5 5 5       5 5 5 5             5 5 5 5                                           s z F I ",
"J V f i - t t t       5 5 5 5       t t t t 5 5 5         5 5 5 5 5 5         5 5 5         t t t t t t t t t t         i j A P ",
"J V f i - r r r       4 4 4 4       r r r r 4 4 4         4 4 4 4 4 4         4 4 4         r r r r r r r r r r         i h C L ",
"J V f i - e e e       3 3 3 3       e e e e 3 3 3         3 3 3 3 3 3         3 3 3         e e e e e e e e e e         i g C L ",
"J V f i - w w w       > > > >       > > > > w w w w w w w             w w w w w w w         w w w w w w w c.c.c.        i f V J ",
"J V f i - q q q       : : : :       : : : : q q q q q q q             q q q q q q q         q q q q q q q x.x.x.        i f V J ",
"J V g i - 0 0 0       ; ; ; ;       ; ; ; ; 0 0 0 0 0 0 0             0 0 0 0 0 0 0         0 0 0 0 0 0 0 z.z.z.        i f V J ",
"L C g i - 9 9 9       - - - -       - - - - 9 9 9 9 9 9 9             9 9 9 9 9 9 9         9 9 9 9 9 9 9 l.l.l.        i f V J ",
"L A j i -             - M M M M M M                       & & & & & &                       8 8 8 k.k.k.k.k.k.k.        i f V J ",
"P A k i -             - M M M M M M                       % % % % % %                       7 7 7 j.j.j.j.j.j.j.        i f V J ",
"I F z g -             - C C C C C C                       $ $ $ $ $ $                       6 6 6 h.h.h.h.h.h.h.        i f V J ",
"U J m k -       - - - - R / / ~ I I - - - -       o o o o o o o o o o o o o o               2 2 2 2 2 2 2 g.g.g.        i f V J ",
"R P V m -       - P ! { | .. .{ Q P P P P -       X X X X X X X X X X X X X X               1 1 1 1 1 1 1 f.f.f.        i f V J ",
"E U A N -       - ~ ' ..@.#.X.| ! P P P P -       . . . . . . . . . . . . . .               < < < < < < < d.d.d.        i f V J ",
"/ ~ U L - - - - - %.-.,.,.*.@.[ P P         , , ,                             , , ,         , , , , , , , s.s.s.        i f V J ",
"/ ^ E U P C C B G >.3.3.2.*...) P P         = = =                             = = =         = = = = = = = a.a.a.        i f V J ",
"( ( / ~ ! U I P W 0.w.9.3.@.} R P P         * * *                             * * *         * * * * * * * p.p.p.        i f V J ",
"( ( ( / ^ ! E R ^ 7.8.<.*.[ - - - -         # # #                             # # #         # # # # # # # i.i.i.        i f V J ",
"( ( ( ( ( ( ( / ( ;.*.} _ H -       @ @ @ @               @ @ @ @ @ @               @ @ @ @       @ @ @ @ @ @ @         i g C L ",
"( ( ( ( ( ( ( ( ) :.=.| _ F -       + + + +               + + + + + +               + + + +       + + + + + + +         i h C L ",
"( ( ( ( ( ( ( ( ) :.*.[ ~ M -       O O O O               O O O O O O               O O O O       O O O O O O O         i k S P ",
"( ( ( ( ( ( ( ( ) :.*.] Q M -                     - - - -             - - - -                                           s z F I ",
"( ( ( ( ( ( ( ( ) ;.&._ T M -                     - M M -             - i u -                                           g b J U ",
"( ( ( ( ( ( ( ( ) &.$.! J M -                     - M M -             - i u -                                           v B P E ",
"( ( ( ( ( ( ( ( ) &.$.! J N -                     - N N -             - i u -                                           M C U ! ",
"( ( ( ( ( ( ( ( ( { ( D n x -                     - x x x x x p u i i i i u -                     - M M M n i u i j z m L U ~ / ",
"( ( ( ( ( ( ( ( ^ P F j i u -                     - u u u f g k k h f i i i -                     - u u u u i p h b M C U E / ( ",
"( ( ( ( ( ( ( / ~ L A - - - -                     - i h z M V A A V M z h i -                     - - - - i g n N H L I ~ / ( ( ",
"( ( ( ( ( ( ( ^ E H B                             - i l M A H L L H A M l f -                             s k N C P U E / ( ( ( ",
"( ( ( ( ( ( ( ^ E H V                             - h B S I R ! ! R I S B v -                             z M J I ! ^ / ( ( ( ( ",
"( ( ( ( ( ( ( ^ E J C                             - z A J R ~ ^ ^ ~ R J A M -                             M V P R ^ / ( ( ( ( ( ",
"( ( ( ( ( ( ( ( ^ R P - - - - - - - - - - - - - - - S U E / ( ( ( ( / E U L - - - - - - - - - - - - - - - J I ~ / ( ( ( ( ( ( ( ",
"( ( ( ( ( ( ( ( ( ( ( ( ( ( ( ( ( ( ( ( ( ( ( ( ( ( ( ( ( ( ( ( ( ( ( ( ( ( ( ( ( ( ( ( ( ( ( ( ( ( ( ( ( ( ( ( ( ( ( ( ( ( ( ( ",
"( ( ( ( ( ( ( ( ( ( ( ( ( ( ( ( ( ( ( ( ( ( ( ( ( ( ( ( ( ( ( ( ( ( ( ( ( ( ( ( ( ( ( ( ( ( ( ( ( ( ( ( ( ( ( ( ( ( ( ( ( ( ( ( ",
"( ( ( ( ( ( ( ( ( ( ( ( ( ( ( ( ( ( ( ( ( ( ( ( ( ( ( ( ( ( ( ( ( ( ( ( ( ( ( ( ( ( ( ( ( ( ( ( ( ( ( ( ( ( ( ( ( ( ( ( ( ( ( ( "
};
